<svg width="86" height="48" viewBox="0 0 86 48" fill="none" xmlns="http://www.w3.org/2000/svg">
<path d="M0 47.8762H1.19982V41.685H0V47.8762Z" fill="url(#paint0_linear_515_11389)"/>
<path d="M3.47897 44.7098C3.47897 44.4887 3.69633 44.3472 3.98324 44.3472C4.30493 44.3472 4.53968 44.4975 4.67879 44.7983L5.63516 44.2676C5.29608 43.6661 4.68748 43.3301 3.98324 43.3301C3.51375 43.3301 3.12251 43.4539 2.80082 43.7104C2.48782 43.958 2.33132 44.303 2.33132 44.7363C2.33132 45.6562 3.13989 45.9304 3.78327 46.0984C4.22668 46.2134 4.57446 46.3461 4.57446 46.5849C4.57446 46.8414 4.37449 46.9652 3.97455 46.9652C3.53114 46.9652 3.25292 46.7706 3.12251 46.3903L2.14874 46.9475C2.47043 47.6462 3.07903 48 3.97455 48C4.47012 48 4.88745 47.8762 5.21783 47.6374C5.55691 47.3897 5.72211 47.0359 5.72211 46.5849C5.7308 45.6385 4.90484 45.3289 4.27015 45.1963C3.82674 45.0813 3.47897 44.9486 3.47897 44.7098Z" fill="url(#paint1_linear_515_11389)"/>
<path d="M9.03052 43.3301C8.43931 43.3301 8.00459 43.5335 7.73507 43.9492V41.685H6.6135V47.8762H7.73507V45.4881C7.73507 44.754 8.10892 44.3914 8.69144 44.3914C9.2131 44.3914 9.55218 44.7098 9.55218 45.3024V47.8762H10.6737V45.1609C10.6737 44.586 10.5172 44.1438 10.2043 43.8165C9.89995 43.4893 9.50871 43.3301 9.03052 43.3301Z" fill="url(#paint2_linear_515_11389)"/>
<path d="M15.5053 47.3278C15.9487 46.8767 16.1748 46.3195 16.1748 45.665C16.1748 45.0105 15.9487 44.4622 15.5053 44.0111C15.0619 43.56 14.5141 43.3301 13.8708 43.3301C13.2274 43.3301 12.6796 43.56 12.2362 44.0111C11.7928 44.4622 11.5755 45.0105 11.5755 45.665C11.5755 46.3195 11.7928 46.8767 12.2362 47.3278C12.6796 47.7789 13.2274 48 13.8708 48C14.5141 48 15.0619 47.7789 15.5053 47.3278ZM13.0274 46.5406C12.8101 46.3107 12.697 46.0188 12.697 45.665C12.697 45.3112 12.8101 45.0194 13.0274 44.7894C13.2535 44.5595 13.5317 44.4445 13.8708 44.4445C14.2098 44.4445 14.4881 44.5595 14.7141 44.7894C14.9402 45.0194 15.0532 45.3112 15.0532 45.665C15.0532 46.0188 14.9402 46.3107 14.7141 46.5406C14.4881 46.7706 14.2098 46.8856 13.8708 46.8856C13.5317 46.8856 13.2535 46.7706 13.0274 46.5406Z" fill="url(#paint3_linear_515_11389)"/>
<path d="M19.5509 43.3301C18.9597 43.3301 18.525 43.5335 18.2554 43.9492V43.4539H17.1339V47.8762H18.2554V45.4881C18.2554 44.754 18.6293 44.3914 19.2118 44.3914C19.7335 44.3914 20.0725 44.7098 20.0725 45.3024V47.8762H21.1941V45.1609C21.1941 44.586 21.0376 44.1438 20.7246 43.8165C20.4203 43.4893 20.0291 43.3301 19.5509 43.3301Z" fill="url(#paint4_linear_515_11389)"/>
<path d="M24.3911 48C25.2345 48 25.9735 47.5489 26.356 46.8502L25.3823 46.2841C25.2084 46.6468 24.8345 46.8679 24.3824 46.8679C24.0434 46.8679 23.7651 46.7529 23.5478 46.5318C23.3304 46.3018 23.2174 46.01 23.2174 45.665C23.2174 44.9575 23.713 44.4533 24.3824 44.4533C24.8258 44.4533 25.1997 44.6833 25.3736 45.0459L26.3387 44.471C25.9822 43.7723 25.2345 43.3301 24.3911 43.3301C23.7391 43.3301 23.1913 43.5512 22.7479 44.0022C22.3132 44.4533 22.0958 45.0017 22.0958 45.665C22.0958 46.3284 22.3132 46.8767 22.7479 47.3278C23.1913 47.7789 23.7391 48 24.3911 48Z" fill="url(#paint5_linear_515_11389)"/>
<path d="M29.5364 43.3301C28.9451 43.3301 28.5104 43.5335 28.2409 43.9492V41.685H27.1193V47.8762H28.2409V45.4881C28.2409 44.754 28.6148 44.3914 29.1973 44.3914C29.7189 44.3914 30.058 44.7098 30.058 45.3024V47.8762H31.1796V45.1609C31.1796 44.586 31.0231 44.1438 30.7101 43.8165C30.4058 43.4893 30.0145 43.3301 29.5364 43.3301Z" fill="url(#paint6_linear_515_11389)"/>
<path d="M33.4289 47.8762V41.4196H32.3074V47.8762H33.4289Z" fill="url(#paint7_linear_515_11389)"/>
<path d="M35.182 42.9232C35.5646 42.9232 35.8775 42.6048 35.8775 42.2245C35.8775 41.8442 35.5646 41.5169 35.182 41.5169C34.8081 41.5169 34.4952 41.8442 34.4952 42.2245C34.4952 42.6048 34.8081 42.9232 35.182 42.9232ZM35.7471 47.8762V43.4539H34.6256V47.8762H35.7471Z" fill="url(#paint8_linear_515_11389)"/>
<path d="M41.0872 46.5495L40.0352 43.4539H38.8006L40.4525 47.8762H41.7306L43.3825 43.4539H42.1479L41.0872 46.5495Z" fill="url(#paint9_linear_515_11389)"/>
<path d="M47.2274 43.9757C46.8884 43.5423 46.4189 43.3301 45.8103 43.3301C45.2277 43.3301 44.7322 43.56 44.3148 44.0111C43.9062 44.4622 43.6975 45.0105 43.6975 45.665C43.6975 46.3195 43.9062 46.8767 44.3148 47.3278C44.7322 47.7789 45.2277 48 45.8103 48C46.4189 48 46.8884 47.7877 47.2274 47.3543V47.8762H48.349V43.4539H47.2274V43.9757ZM45.1582 46.5672C44.9321 46.3284 44.8191 46.0277 44.8191 45.665C44.8191 45.3024 44.9321 45.0017 45.1582 44.7717C45.3842 44.5329 45.6712 44.4179 46.0189 44.4179C46.3667 44.4179 46.6536 44.5329 46.8797 44.7717C47.1144 45.0017 47.2274 45.3024 47.2274 45.665C47.2274 46.0277 47.1144 46.3284 46.8797 46.5672C46.6536 46.7971 46.3667 46.9121 46.0189 46.9121C45.6712 46.9121 45.3842 46.7971 45.1582 46.5672Z" fill="url(#paint10_linear_515_11389)"/>
<path d="M54.4099 43.3301C53.8013 43.3301 53.3318 43.5423 53.0014 43.9757V41.685H51.8798V47.8762H53.0014V47.3543C53.3318 47.7877 53.8013 48 54.4099 48C54.9924 48 55.4967 47.7789 55.9053 47.3278C56.3226 46.8767 56.5313 46.3195 56.5313 45.665C56.5313 45.0105 56.3226 44.4622 55.9053 44.0111C55.4967 43.56 54.9924 43.3301 54.4099 43.3301ZM53.3405 46.5672C53.1144 46.3284 53.0014 46.0277 53.0014 45.665C53.0014 45.3024 53.1144 45.0017 53.3405 44.7717C53.5665 44.5329 53.8534 44.4179 54.2012 44.4179C54.549 44.4179 54.8359 44.5329 55.0619 44.7717C55.2967 45.0017 55.4097 45.3024 55.4097 45.665C55.4097 46.0277 55.2967 46.3284 55.0619 46.5672C54.8359 46.7971 54.549 46.9121 54.2012 46.9121C53.8534 46.9121 53.5665 46.7971 53.3405 46.5672Z" fill="url(#paint11_linear_515_11389)"/>
<path d="M60.7962 43.9757C60.4571 43.5423 59.9876 43.3301 59.379 43.3301C58.7965 43.3301 58.3009 43.56 57.8836 44.0111C57.475 44.4622 57.2663 45.0105 57.2663 45.665C57.2663 46.3195 57.475 46.8767 57.8836 47.3278C58.3009 47.7789 58.7965 48 59.379 48C59.9876 48 60.4571 47.7877 60.7962 47.3543V47.8762H61.9178V43.4539H60.7962V43.9757ZM58.727 46.5672C58.5009 46.3284 58.3879 46.0277 58.3879 45.665C58.3879 45.3024 58.5009 45.0017 58.727 44.7717C58.953 44.5329 59.2399 44.4179 59.5877 44.4179C59.9355 44.4179 60.2224 44.5329 60.4484 44.7717C60.6832 45.0017 60.7962 45.3024 60.7962 45.665C60.7962 46.0277 60.6832 46.3284 60.4484 46.5672C60.2224 46.7971 59.9355 46.9121 59.5877 46.9121C59.2399 46.9121 58.953 46.7971 58.727 46.5672Z" fill="url(#paint12_linear_515_11389)"/>
<path d="M64.2265 43.4539H63.1049V47.8762H64.2265V45.7623C64.2265 45.3378 64.3569 45.0371 64.6264 44.8513C64.8959 44.6656 65.2089 44.5948 65.548 44.6391V43.3654C64.9568 43.3654 64.4351 43.6485 64.2265 44.2145V43.4539Z" fill="url(#paint13_linear_515_11389)"/>
<path d="M69.5166 43.9757C69.1775 43.5423 68.708 43.3301 68.0994 43.3301C67.5169 43.3301 67.0213 43.56 66.604 44.0111C66.1954 44.4622 65.9867 45.0105 65.9867 45.665C65.9867 46.3195 66.1954 46.8767 66.604 47.3278C67.0213 47.7789 67.5169 48 68.0994 48C68.708 48 69.1775 47.7877 69.5166 47.3543V47.8762H70.6382V43.4539H69.5166V43.9757ZM67.4473 46.5672C67.2213 46.3284 67.1083 46.0277 67.1083 45.665C67.1083 45.3024 67.2213 45.0017 67.4473 44.7717C67.6734 44.5329 67.9603 44.4179 68.3081 44.4179C68.6558 44.4179 68.9428 44.5329 69.1688 44.7717C69.4036 45.0017 69.5166 45.3024 69.5166 45.665C69.5166 46.0277 69.4036 46.3284 69.1688 46.5672C68.9428 46.7971 68.6558 46.9121 68.3081 46.9121C67.9603 46.9121 67.6734 46.7971 67.4473 46.5672Z" fill="url(#paint14_linear_515_11389)"/>
<path d="M74.0336 45.6385L75.7812 43.4539H74.4423L72.9469 45.3997V41.685H71.8253V47.8762H72.9469V45.8685L74.5292 47.8762H75.8334L74.0336 45.6385Z" fill="url(#paint15_linear_515_11389)"/>
<path d="M79.553 43.9757C79.2139 43.5423 78.7444 43.3301 78.1358 43.3301C77.5533 43.3301 77.0577 43.56 76.6404 44.0111C76.2318 44.4622 76.0231 45.0105 76.0231 45.665C76.0231 46.3195 76.2318 46.8767 76.6404 47.3278C77.0577 47.7789 77.5533 48 78.1358 48C78.7444 48 79.2139 47.7877 79.553 47.3543V47.8762H80.6746V43.4539H79.553V43.9757ZM77.4837 46.5672C77.2577 46.3284 77.1447 46.0277 77.1447 45.665C77.1447 45.3024 77.2577 45.0017 77.4837 44.7717C77.7098 44.5329 77.9967 44.4179 78.3445 44.4179C78.6923 44.4179 78.9792 44.5329 79.2052 44.7717C79.44 45.0017 79.553 45.3024 79.553 45.665C79.553 46.0277 79.44 46.3284 79.2052 46.5672C78.9792 46.7971 78.6923 46.9121 78.3445 46.9121C77.9967 46.9121 77.7098 46.7971 77.4837 46.5672Z" fill="url(#paint16_linear_515_11389)"/>
<path d="M82.9833 47.8762V41.4196H81.8617V47.8762H82.9833Z" fill="url(#paint17_linear_515_11389)"/>
<path d="M84.7364 42.9232C85.1189 42.9232 85.4319 42.6048 85.4319 42.2245C85.4319 41.8442 85.1189 41.5169 84.7364 41.5169C84.3625 41.5169 84.0495 41.8442 84.0495 42.2245C84.0495 42.6048 84.3625 42.9232 84.7364 42.9232ZM85.3015 47.8762V43.4539H84.1799V47.8762H85.3015Z" fill="url(#paint18_linear_515_11389)"/>
<path fill-rule="evenodd" clip-rule="evenodd" d="M39.3754 8.57959L38.9518 8.61597C36.3191 8.84229 34.1056 9.70631 32.1081 11.2874C31.4148 11.8361 30.0819 13.2454 29.5866 13.9535C28.1195 16.0506 27.2746 18.377 27.0527 20.9302C27.0204 21.3018 27.0004 24.2171 27.0004 28.5499L27.0004 35.5677H31.6217L31.6231 28.7141C31.6238 24.891 31.6456 21.6282 31.6724 21.3353C32.0481 17.2206 35.1234 13.9318 38.9236 13.5804L39.3704 13.539L39.3882 18.5205C39.4056 23.3902 39.4086 23.5173 39.5206 24.1823C39.8694 26.2543 40.4648 27.8773 41.4723 29.5025C43.5088 32.7872 46.7851 34.9745 50.4308 35.4832C51.2267 35.5942 52.8365 35.5944 53.6349 35.4836C55.5995 35.2109 57.4875 34.4506 59.0899 33.2869L59.5743 32.9351L59.9372 33.2032C61.4237 34.3017 63.0661 35.0204 64.9984 35.4181L65.5889 35.5397L86 35.5698V0H81.3273V30.6457L73.6635 30.6288C66.0385 30.6119 65.9973 30.6113 65.5231 30.4945C64.4305 30.2255 63.5466 29.8244 62.6637 29.197C61.2692 28.2061 60.2286 26.8214 59.6015 25.1225L59.4073 24.5964L79.5549 24.5417L79.6154 24.186C79.7301 23.5106 79.7998 22.2606 79.7632 21.5342C79.6221 18.7308 78.7659 16.2103 77.1974 13.9808C76.6857 13.2535 75.619 12.0788 74.9857 11.5454C73.1368 9.98806 71.0464 9.04766 68.6441 8.69258C67.9198 8.58549 66.1451 8.60208 65.3835 8.72301C61.7398 9.30156 58.5866 11.429 56.5366 14.6922C55.6072 16.1716 54.8709 18.182 54.6027 19.9726C54.1529 22.9759 54.7254 26.2788 56.1326 28.8007C56.2642 29.0364 56.3718 29.2457 56.3718 29.2658C56.3718 29.3334 55.4261 29.864 54.9444 30.0666C53.8915 30.5096 52.9346 30.6749 51.706 30.6262C50.8354 30.5916 50.2626 30.4836 49.4931 30.2088C49.0283 30.0429 48.1601 29.6037 47.7762 29.3402C46.1067 28.1945 44.861 26.4393 44.3316 24.487C44.0242 23.3536 44.0334 23.5303 44.0114 18.3174L43.9911 13.5157H50.8262V8.59097H43.9968V0H39.3754V8.57959ZM11.9207 8.64672C10.0067 8.84519 8.11226 9.51485 6.46289 10.576C4.8472 11.6154 3.22741 13.344 2.22118 15.1026C-0.81209 20.4039 -0.037343 27.2176 4.10008 31.6266C5.97523 33.6249 8.22666 34.8718 10.9348 35.4121L11.5701 35.5388L25.7212 35.5707L25.7029 28.2231C25.683 20.2037 25.6979 20.6265 25.3804 19.1179C24.3119 14.0412 20.4538 9.98708 15.6523 8.8957C14.5673 8.64908 12.9431 8.54068 11.9207 8.64672ZM14.3686 13.6589C17.7774 14.2719 20.4772 17.2191 20.989 20.886C21.0247 21.1417 21.0439 22.9193 21.0439 25.9634V30.6474L16.4867 30.6287C12.0139 30.6103 11.9204 30.6077 11.4358 30.49C9.44275 30.006 7.77695 28.8683 6.60055 27.1877C5.7857 26.0237 5.23853 24.5847 5.07082 23.1653C4.98523 22.4404 5.03704 21.031 5.17455 20.3448C5.83536 17.0472 8.35452 14.377 11.4357 13.7084C12.3519 13.5096 13.4366 13.4913 14.3686 13.6589ZM68.4388 13.6589C70.8194 14.087 72.961 15.7088 74.132 17.9701C74.3716 18.4326 74.6628 19.1415 74.7581 19.4938L74.7988 19.6443H67.1258C60.3922 19.6443 59.4527 19.6344 59.4527 19.5635C59.4527 19.2816 60.0503 17.9651 60.4841 17.2914C62.2711 14.5159 65.3602 13.1052 68.4388 13.6589Z" fill="url(#paint19_linear_515_11389)"/>
<defs>
<linearGradient id="paint0_linear_515_11389" x1="3.6393e-07" y1="29.8318" x2="86.1402" y2="20.5974" gradientUnits="userSpaceOnUse">
<stop stop-color="#0B3F23"/>
<stop offset="1" stop-color="#009B48"/>
</linearGradient>
<linearGradient id="paint1_linear_515_11389" x1="3.6393e-07" y1="29.8318" x2="86.1402" y2="20.5974" gradientUnits="userSpaceOnUse">
<stop stop-color="#0B3F23"/>
<stop offset="1" stop-color="#009B48"/>
</linearGradient>
<linearGradient id="paint2_linear_515_11389" x1="3.6393e-07" y1="29.8318" x2="86.1402" y2="20.5974" gradientUnits="userSpaceOnUse">
<stop stop-color="#0B3F23"/>
<stop offset="1" stop-color="#009B48"/>
</linearGradient>
<linearGradient id="paint3_linear_515_11389" x1="3.6393e-07" y1="29.8318" x2="86.1402" y2="20.5974" gradientUnits="userSpaceOnUse">
<stop stop-color="#0B3F23"/>
<stop offset="1" stop-color="#009B48"/>
</linearGradient>
<linearGradient id="paint4_linear_515_11389" x1="3.6393e-07" y1="29.8318" x2="86.1402" y2="20.5974" gradientUnits="userSpaceOnUse">
<stop stop-color="#0B3F23"/>
<stop offset="1" stop-color="#009B48"/>
</linearGradient>
<linearGradient id="paint5_linear_515_11389" x1="3.6393e-07" y1="29.8318" x2="86.1402" y2="20.5974" gradientUnits="userSpaceOnUse">
<stop stop-color="#0B3F23"/>
<stop offset="1" stop-color="#009B48"/>
</linearGradient>
<linearGradient id="paint6_linear_515_11389" x1="3.6393e-07" y1="29.8318" x2="86.1402" y2="20.5974" gradientUnits="userSpaceOnUse">
<stop stop-color="#0B3F23"/>
<stop offset="1" stop-color="#009B48"/>
</linearGradient>
<linearGradient id="paint7_linear_515_11389" x1="3.6393e-07" y1="29.8318" x2="86.1402" y2="20.5974" gradientUnits="userSpaceOnUse">
<stop stop-color="#0B3F23"/>
<stop offset="1" stop-color="#009B48"/>
</linearGradient>
<linearGradient id="paint8_linear_515_11389" x1="3.6393e-07" y1="29.8318" x2="86.1402" y2="20.5974" gradientUnits="userSpaceOnUse">
<stop stop-color="#0B3F23"/>
<stop offset="1" stop-color="#009B48"/>
</linearGradient>
<linearGradient id="paint9_linear_515_11389" x1="3.6393e-07" y1="29.8318" x2="86.1402" y2="20.5974" gradientUnits="userSpaceOnUse">
<stop stop-color="#0B3F23"/>
<stop offset="1" stop-color="#009B48"/>
</linearGradient>
<linearGradient id="paint10_linear_515_11389" x1="3.6393e-07" y1="29.8318" x2="86.1402" y2="20.5974" gradientUnits="userSpaceOnUse">
<stop stop-color="#0B3F23"/>
<stop offset="1" stop-color="#009B48"/>
</linearGradient>
<linearGradient id="paint11_linear_515_11389" x1="3.6393e-07" y1="29.8318" x2="86.1402" y2="20.5974" gradientUnits="userSpaceOnUse">
<stop stop-color="#0B3F23"/>
<stop offset="1" stop-color="#009B48"/>
</linearGradient>
<linearGradient id="paint12_linear_515_11389" x1="3.6393e-07" y1="29.8318" x2="86.1402" y2="20.5974" gradientUnits="userSpaceOnUse">
<stop stop-color="#0B3F23"/>
<stop offset="1" stop-color="#009B48"/>
</linearGradient>
<linearGradient id="paint13_linear_515_11389" x1="3.6393e-07" y1="29.8318" x2="86.1402" y2="20.5974" gradientUnits="userSpaceOnUse">
<stop stop-color="#0B3F23"/>
<stop offset="1" stop-color="#009B48"/>
</linearGradient>
<linearGradient id="paint14_linear_515_11389" x1="3.6393e-07" y1="29.8318" x2="86.1402" y2="20.5974" gradientUnits="userSpaceOnUse">
<stop stop-color="#0B3F23"/>
<stop offset="1" stop-color="#009B48"/>
</linearGradient>
<linearGradient id="paint15_linear_515_11389" x1="3.6393e-07" y1="29.8318" x2="86.1402" y2="20.5974" gradientUnits="userSpaceOnUse">
<stop stop-color="#0B3F23"/>
<stop offset="1" stop-color="#009B48"/>
</linearGradient>
<linearGradient id="paint16_linear_515_11389" x1="3.6393e-07" y1="29.8318" x2="86.1402" y2="20.5974" gradientUnits="userSpaceOnUse">
<stop stop-color="#0B3F23"/>
<stop offset="1" stop-color="#009B48"/>
</linearGradient>
<linearGradient id="paint17_linear_515_11389" x1="3.6393e-07" y1="29.8318" x2="86.1402" y2="20.5974" gradientUnits="userSpaceOnUse">
<stop stop-color="#0B3F23"/>
<stop offset="1" stop-color="#009B48"/>
</linearGradient>
<linearGradient id="paint18_linear_515_11389" x1="3.6393e-07" y1="29.8318" x2="86.1402" y2="20.5974" gradientUnits="userSpaceOnUse">
<stop stop-color="#0B3F23"/>
<stop offset="1" stop-color="#009B48"/>
</linearGradient>
<linearGradient id="paint19_linear_515_11389" x1="3.6393e-07" y1="29.8318" x2="86.1402" y2="20.5974" gradientUnits="userSpaceOnUse">
<stop stop-color="#0B3F23"/>
<stop offset="1" stop-color="#009B48"/>
</linearGradient>
</defs>
</svg>
